<?xml version="1.0" encoding="UTF-8"?>
<!DOCTYPE svg PUBLIC "-//W3C//DTD SVG 1.1//EN" "http://www.w3.org/Graphics/SVG/1.1/DTD/svg11.dtd">
<svg xmlns="http://www.w3.org/2000/svg" xml:space="preserve" width="472px" height="520px" version="1.1" style="shape-rendering:geometricPrecision; text-rendering:geometricPrecision; image-rendering:optimizeQuality; fill-rule:evenodd; clip-rule:evenodd"
viewBox="0 0 472 519.2"
 xmlns:xlink="http://www.w3.org/1999/xlink">
 <defs>
  <style type="text/css">
   <![CDATA[
    .fil0 {fill:#FF0054}
   ]]>
  </style>
 </defs>
 <g id="Layer_x0020_1">
  <metadata id="CorelCorpID_0Corel-Layer"/>
  <path class="fil0" d="M21.57 238.63c0,84.3 6.74,116.15 59.87,185.35 25.29,32.93 90.81,69.54 133.72,69.54l2.4 0 8.12 0c44.86,-0.04 70.94,-1.2 114.69,-26.44 60.72,-35.03 91.84,-107.46 105.74,-174.98 3.18,-15.47 11.1,-40.57 -8.31,-40.57 -14.55,0 -14.56,38.65 -24.38,72.43 -14.13,48.65 -37.09,87.59 -76.98,116.61 -42.47,30.9 -72.84,27.14 -121.28,27.14 -66.31,0 -132.93,-63.2 -155.32,-125.38 -76.82,-213.3 142,-364.55 292.73,-250.79l24.86 20.32c20.99,20.99 24.08,41.2 44.23,42.88 8.28,-12.36 8.19,-12.16 0.15,-25.76 -33.48,-56.64 -111.91,-100.08 -190.51,-100.08 -112.67,0 -209.73,104.73 -209.73,209.73z"/>
  <path class="fil0" d="M79.65 245.08c0,55.18 1.98,99.72 45.91,144.46 70.34,71.63 210.55,68.05 252.14,-69.04 4.38,-14.43 18.17,-68.97 -4.43,-68.97l-161.33 0c-14.26,0 -19.57,22.59 -3.23,22.59l151.65 0c0,68.17 -47.14,135.51 -112.93,135.51 -46.07,0 -84.67,-8.02 -111.17,-43.71 -84.86,-114.29 3.45,-253.13 82.13,-253.13 90,0 73.26,19.36 100.02,19.36 25.54,0 4.1,-45.17 -87.11,-45.17 -79.9,0 -151.65,78.2 -151.65,158.1z"/>
  <path class="fil0" d="M199.03 312.84c0.22,9.83 1.46,11.76 3.23,19.36 40.73,0 60.01,9.85 116.15,-3.23 -0.64,-28.81 -15.93,-19.36 -103.25,-19.36 -5.08,0 -12.22,1.71 -16.13,3.23z"/>
  <path class="fil0" d="M334.55 141.83l0 9.68c11.94,6.32 8.93,6.41 22.58,3.23 0,-16.87 2.79,-22.59 -12.9,-22.59 -7.44,0 -9.68,2.25 -9.68,9.68z"/>
 </g>
</svg>
