<?xml version="1.0" encoding="UTF-8"?>
<!DOCTYPE svg PUBLIC "-//W3C//DTD SVG 1.1//EN" "http://www.w3.org/Graphics/SVG/1.1/DTD/svg11.dtd">
<svg xmlns="http://www.w3.org/2000/svg" xml:space="preserve" width="1200px" height="182px" version="1.1" style="shape-rendering:geometricPrecision; text-rendering:geometricPrecision; image-rendering:optimizeQuality; fill-rule:evenodd; clip-rule:evenodd"
viewBox="0 0 1200 182.07"
 xmlns:xlink="http://www.w3.org/1999/xlink">
 <defs>
  <style type="text/css">
   <![CDATA[
    .fil0 {fill:#FF0054}
   ]]>
  </style>
 </defs>
 <g id="Layer_x0020_1">
  <metadata id="CorelCorpID_0Corel-Layer"/>
  <g id="_2201614529024">
   <g>
    <path class="fil0" d="M366.92 14.66l0 14.71c-41.25,0 -70.1,63.17 -35.36,102.12 14.99,16.8 39.87,24.12 61.04,14.08 18.72,-8.88 33.15,-29.5 33.15,-51.71 0,-15.67 -1.16,-28.93 -10.64,-41.4 -19.07,-25.09 -34.22,-19.83 -27.35,-12.44 1.37,1.47 30.07,12.52 30.07,49.32 0,27.89 -18.62,52.04 -48.65,52.04 -23.88,0 -44.13,-24.32 -44.13,-48.65 0,-22.97 7.44,-42.19 29.4,-52.07 6.21,-2.79 13.2,-2.83 20.39,-4.5 0,-7.9 1.13,-11.04 1.13,-19.24 7.91,3.8 34.92,0.74 54.71,41.47 13.09,26.96 6.52,58.39 -12.18,82.53 -7.16,9.26 -26.83,21.96 -42.53,21.96 -25.37,0 -35.59,-5.48 -52.92,-22.89 -22.95,-23.05 -23.24,-66.34 -5.94,-92.54 3.81,-5.75 7.62,-9.65 12.74,-14.42 2.13,-1.98 5.5,-4.47 7.73,-5.85 17.76,-10.93 -0.85,-19.98 -26.45,14.29 -13.31,17.81 -14.36,35.19 -14.36,55.79 0,38.73 39.86,78.71 77.21,73.9 15.2,-1.96 27.2,-3.51 41.26,-15.4 11.44,-9.68 18.44,-19.19 24.44,-33.26 19.83,-46.52 -7.89,-113.5 -71.63,-113.5 -0.59,2.54 -1.13,2.61 -1.13,5.66z"/>
    <path class="fil0" d="M20.69 83.68c0,29.56 2.36,40.73 20.99,65 8.87,11.55 31.85,24.38 46.9,24.38l0.84 0 2.84 0c15.73,-0.01 24.88,-0.42 40.22,-9.27 21.3,-12.28 32.21,-37.68 37.08,-61.36 1.12,-5.42 3.9,-14.22 -2.91,-14.22 -5.1,0 -5.11,13.55 -8.55,25.39 -4.95,17.06 -13.01,30.72 -26.99,40.9 -14.9,10.83 -25.55,9.51 -42.53,9.51 -23.26,0 -46.62,-22.16 -54.47,-43.96 -26.94,-74.8 49.8,-127.84 102.65,-87.95l8.72 7.12c7.36,7.37 8.44,14.45 15.51,15.04 2.9,-4.33 2.87,-4.26 0.05,-9.03 -11.74,-19.86 -39.24,-35.09 -66.8,-35.09 -39.51,0 -73.55,36.72 -73.55,73.54z"/>
    <path class="fil0" d="M41.06 85.94c0,19.35 0.69,34.97 16.09,50.66 24.67,25.12 73.84,23.86 88.42,-24.21 1.54,-5.06 6.38,-24.18 -1.55,-24.18l-56.57 0c-5.01,0 -6.87,7.92 -1.14,7.92l53.18 0c0,23.9 -16.53,47.52 -39.6,47.52 -16.15,0 -29.69,-2.82 -38.98,-15.33 -29.76,-40.08 1.21,-88.77 28.8,-88.77 31.56,0 25.69,6.79 35.07,6.79 8.96,0 1.44,-15.84 -30.54,-15.84 -28.02,0 -53.18,27.43 -53.18,55.44z"/>
    <path class="fil0" d="M493.64 40.68c0,18.23 -0.94,84.72 0.82,98.76 1.82,14.63 -8.05,12.13 33.13,12.13 9.2,0 16.25,-1.39 21.7,-5.45 5.19,-3.86 8.85,-10.83 8.85,-19.44 0,-26.91 -16.64,-30.55 -41.87,-30.55 -4.74,0 -7.01,6.26 -0.58,8.46 13.73,4.7 33.39,-8.63 33.39,23.22 0,10.31 -5.19,14.77 -15.78,14.76 -11.1,0 -18.8,1.08 -30.61,1.08l0 -105.23c15.76,0 45.16,-4.22 39.72,20.46 -1.27,5.77 -2.4,7.04 2.15,10.09 3.41,-0.91 2.74,-0.44 4.61,-3.31 3.03,-4.63 10.73,-36.29 -32.9,-36.29 -20.76,0 -22.63,-2.74 -22.63,11.31z"/>
    <path class="fil0" d="M473.28 19.19l0 143.69c0,11.75 9.05,14.7 9.05,-4.52l0 -140.3c19.22,0 54.48,-1.09 67.03,6.51 6.08,3.69 10.8,8.68 12.84,16.58 1.24,4.8 1.59,7.6 1.53,13.17 -0.08,7.53 -0.7,7.86 6.85,7.86 3.83,-16.44 0.03,-34.19 -14.45,-43.25 -19.18,-11.98 -52.94,-8.79 -78.33,-8.79 -3.97,0 -4.52,5.02 -4.52,9.05z"/>
    <path class="fil0" d="M607.92 170.8c2.66,0.62 3.34,1.06 6.79,1.13 1.4,-6.01 4.59,-12.54 6.66,-18.23 2.23,-6.18 4.63,-12.17 6.78,-18.1l40.87 -110.76c4.16,4.8 8.85,23.27 11.01,29.73l10.06 30.67c1.74,5.22 4.19,17.67 9.48,17.67 9.68,0 -4.86,-29.89 -10.18,-47.52l-14.71 -44.12 -9.05 0 -55.12 148.54c-1.76,4.31 -2.59,5.19 -2.59,10.99z"/>
    <path class="fil0" d="M946.23 58.79c0,12.55 5.62,19.83 12.14,26.33 11.73,11.68 33.77,17.32 50.75,27.32 23.4,13.78 5.43,17.96 18.57,21.02 14.8,-22.09 -35.02,-37.54 -47.54,-44.1 -19.45,-10.21 -24.87,-15.07 -24.87,-33.97 0,-9.66 12.58,-18.1 22.63,-18.1 13.85,0 42.39,-2.1 45.94,19.69 0.79,4.89 -0.11,10.86 4.98,10.86 9.17,0 3.31,-22.66 -7.89,-30.59 -21.56,-15.25 -74.71,-13.84 -74.71,21.54z"/>
    <path class="fil0" d="M1087.66 170.8c4.81,1.28 1.98,2.26 5.66,2.26l81.46 0c4.38,0 4.53,-3.25 4.53,-7.7l0 -0.22c-3.54,-0.29 -4.02,-1.13 -7.92,-1.13l-74.68 0 0 -58.83 58.84 0c5.73,0 3.87,-7.92 -1.13,-7.92l-59.97 0c-10.05,0 -6.79,11.81 -6.79,32.81 0,13.58 0,27.15 0,40.73z"/>
    <path class="fil0" d="M966.6 56.52c0,32.61 78.07,34.72 78.07,66.76 0,24.02 -39.21,28.65 -58.1,18.5 -13.57,-7.29 -9.26,-13.97 -15.45,-13.97 -9.57,0 -0.28,27.15 38.47,27.15 45.1,0 55.91,-37.97 30.25,-56.27 -9.09,-6.49 -34.39,-18 -46.08,-24.07 -23.3,-12.07 -16.51,-15.7 -20.38,-23.75l-5.65 0c-0.59,2.54 -1.13,2.6 -1.13,5.65z"/>
    <path class="fil0" d="M768.59 21.45l0 118.8c0,5.69 1.02,5.07 1.13,10.19 14.76,0 61.29,1.46 72.41,-1.14 -0.09,-4.1 -0.49,-6.78 -4.52,-6.78l-59.97 0c0,-22.22 1.07,-109.2 -0.76,-124.84 -0.92,-7.9 1.59,-8.68 -7.16,-8.68 0,5.74 -1.13,6.17 -1.13,12.45z"/>
    <path class="fil0" d="M192.67 16.92c0,20.75 -1.69,121.39 1.13,133.52l57.71 0c8.21,0.04 12.97,1.98 14.71,-4.53 -3.41,-5.08 -6.45,-3.44 -14.71,-3.4l-36.21 0.01c-19.23,0.06 -14.71,8.97 -14.71,-57.71 0,-7.84 0.25,-13.15 0.97,-19.4l-0.97 -41.7c0.01,-2.57 0.35,-8.12 0.12,-10.3 -0.34,-3.17 -0.75,-4.15 -2.1,-4.41l-4.81 0c-0.29,3.54 -1.13,4.02 -1.13,7.92z"/>
    <path class="fil0" d="M512.88 76.89c-0.6,2.58 -0.88,2.6 -1.13,5.66 12.41,5.95 42.19,-4.62 53.35,20.19 8.37,18.62 5.51,48.72 -16.92,58.1 -4.89,2.05 -5.49,1.74 -12.65,2.07l-28.32 1.09c-7.86,-0.07 -12.44,-1.82 -12.44,4.54 0,2.61 0.79,3.39 3.4,3.39 22.06,0 40.5,2.78 56.4,-4.7 13.55,-6.38 22.8,-22.94 22.8,-39.42 0,-11.17 0.27,-16.93 -4.17,-27.51 -2.92,-6.94 -5.77,-9.37 -10.8,-14.09 -11.08,-10.42 -41.27,-12.52 -49.52,-9.32z"/>
    <path class="fil0" d="M884 94.99c8.26,1.93 10.51,1.14 20.36,1.14l0 56.57c0,5.03 1.56,5.83 5.66,6.79 2.57,-2.44 3.4,-4.33 3.4,-9.05l0 -53.18c0,-12.78 -5.46,-10.19 -21.5,-10.19l0 -72.41c0,-4.03 -2.68,-4.43 -6.79,-4.52 -3.26,13.98 -1.13,65.76 -1.13,84.85z"/>
    <path class="fil0" d="M1087.66 12.4l0 71.28c3.95,0.92 3.81,2.26 7.92,2.26l58.84 0c4.92,0 8.99,-9.05 -4.53,-9.05l-53.18 0 0 -36.21c0,-11.72 -1.13,-18.97 -1.13,-30.54 -6.52,-1.52 -2.53,-1.48 -7.92,2.26z"/>
    <path class="fil0" d="M664.49 113.1c0.26,3.05 0.53,3.08 1.14,5.65 9.41,0 15.68,1.14 26.02,1.14 9.43,-0.01 18.86,0 28.29,0 1.08,4.66 17.49,49.25 19.4,50.92 0.77,0.68 -2.19,1.55 3.08,1.1 1.87,-0.17 3.54,-0.38 3.54,-2.24 0,-4.39 -12.72,-37.46 -15.67,-45.43 -1.42,-3.84 -3.71,-13.41 -8.09,-13.41l-53.18 0c-1.84,0 -3.6,1.36 -4.53,2.27z"/>
    <path class="fil0" d="M633.94 157.22c0,2.82 3.96,2.27 6.79,2.27 1.93,-8.27 5.53,-15.99 8.35,-24.47l16.42 -49.21c7.26,-21.78 11.3,-24.83 4.65,-29.29 -5.5,1.47 -4.81,5.13 -6.65,10.33 -1.52,4.31 -3.11,8.2 -4.52,12.45l-12.91 38c-1.69,4.47 -2.86,8.15 -4.35,12.63 -1.95,5.84 -7.78,20.65 -7.78,27.29z"/>
    <path class="fil0" d="M213.04 87.07c0,9.95 0.38,17.78 1.07,26.09 1.4,16.98 -3.97,20.56 6.85,18.04 2.72,-11.69 1.13,-77.92 1.13,-95.04 0,-3.47 -1.05,-6.79 -4.53,-6.79 -6.55,0 -2.1,14.07 -3.55,26.99 -1.06,9.37 -0.97,19.72 -0.97,30.71z"/>
    <path class="fil0" d="M790.09 30.5l0 100.7c2.58,0.6 2.6,0.88 5.65,1.13 1.37,-2.04 2.27,-1.99 2.27,-4.52l0 -93.91c0,-2.54 -0.9,-2.49 -2.27,-4.53 -2.15,0.18 -3.96,0.47 -5.65,1.13z"/>
    <path class="fil0" d="M1108.03 31.63c0,6.41 0,12.83 0,19.24 -0.01,8.26 -2.51,16.97 4.52,16.97 5.53,0 3.41,-11.1 3.3,-21.6 -0.11,-9.62 -1.2,-7.83 17.07,-7.82l37.42 0.09c6.77,0.01 6.18,0.69 8.97,-3.48 -0.68,-2.57 -1.09,-4.53 -4.53,-4.53 -10.21,0 -60.74,-1.2 -66.75,1.13z"/>
    <path class="fil0" d="M996.01 11.27c-1.05,4.52 -2.14,6.89 3.44,7.84 5.89,1.01 6.83,0.09 12.83,1.92 9.36,2.85 12.34,4.29 18.85,9.43 4.49,3.52 9.19,10.97 11.31,16.98 1.17,3.32 2.03,7.04 2.18,11.39 0.18,5.22 -0.72,10.14 4.57,10.14 7.53,0 3.13,-17.81 1.56,-23.06 -8.75,-29.31 -44.71,-38.53 -54.74,-34.64z"/>
    <path class="fil0" d="M945.1 117.62c0,26.06 11.3,40.86 32.48,50.12 3.5,1.53 25.22,10.57 25.22,0.8 0,-4.19 -3.82,-4.18 -7.8,-4.64 -10.21,-1.18 -20.49,-5.16 -27.58,-12.02 -16.01,-15.49 -12.01,-22.53 -15.53,-37.65 -3.94,0 -6.79,-0.69 -6.79,3.39z"/>
    <path class="fil0" d="M1108.03 117.62l0 31.68c0,2.61 0.79,3.4 3.39,3.4l50.92 0c5.73,0 3.87,-7.92 -1.13,-7.92l-45.26 0 0 -27.16c0,-4.82 -7.92,-4.82 -7.92,0z"/>
    <path class="fil0" d="M717.67 102.91c5.07,-4.23 3.06,-4.89 -1.57,-18.79l-16.93 -52.09c-1.6,-4.95 -1.6,-7.04 -6.39,-8.32 -4.61,3.85 -3.62,3.64 1.14,19.23 2.16,7.1 4.54,14.19 6.93,21.35l10.17 30.57c1.49,4.11 2.12,6.84 6.65,8.05z"/>
    <path class="fil0" d="M658.84 134.6c0,6.14 3.15,4.55 10.19,4.52 6.18,-0.03 6.61,1 12.4,1.17 8.85,0.26 18.27,-0.04 27.19,-0.04 1.73,20.75 19.5,30.53 8.74,1.45 -2.13,-5.73 -1.71,-10.5 -8.74,-10.5l-46.39 0c-2.61,0 -3.39,0.79 -3.39,3.4z"/>
    <path class="fil0" d="M1111.42 18.06l64.5 0c1.81,0 2.94,-1.12 3.39,-2.51l0 -2.91c-0.45,-1.39 -1.58,-2.5 -3.39,-2.5l-64.5 0c-5.76,0 -5.76,7.92 0,7.92z"/>
    <path class="fil0" d="M790.09 166.28c0,3.97 5.02,4.52 9.05,4.52l44.13 0c15.61,0 14.52,-9.05 2.26,-9.05l-50.92 0c-2.65,0 -4.52,1.88 -4.52,4.53z"/>
    <path class="fil0" d="M214.17 166.28c0,3.97 5.02,4.52 9.05,4.52l44.13 0c15.44,0 15.44,-9.05 0,-9.05l-48.65 0c-2.65,0 -4.53,1.88 -4.53,4.53z"/>
    <path class="fil0" d="M884 113.1c0,13.42 -1.41,47.93 1.13,58.83 3.93,0 6.79,0.7 6.79,-3.39l0 -56.57c0,-5.73 -7.92,-3.87 -7.92,1.13z"/>
    <path class="fil0" d="M904.36 36.16l0 30.55c0,3.9 0.84,4.38 1.14,7.92l6.78 0c0.12,-5.12 1.14,-4.5 1.14,-10.18 0,-9.17 2.43,-37.34 -4.53,-37.34 -3.97,0 -4.53,5.02 -4.53,9.05z"/>
    <path class="fil0" d="M82.92 109.7c0.08,3.45 0.51,4.13 1.13,6.79 14.29,0 21.04,3.46 40.73,-1.13 -0.22,-10.1 -5.58,-6.79 -36.2,-6.79 -1.78,0 -4.29,0.6 -5.66,1.13z"/>
    <path class="fil0" d="M964.33 119.89c0,2.38 9.05,7.27 9.05,-1.14 0,-4.7 -4.19,-4.52 -6.78,-4.52 -0.76,1.43 -2.27,3.74 -2.27,5.66z"/>
    <path class="fil0" d="M904.36 166.28c0,3.05 0.54,3.12 1.14,5.65 13.51,0 7.22,-9.05 2.26,-9.05 -0.96,0 -3.4,2.43 -3.4,3.4z"/>
    <path class="fil0" d="M846.66 144.78c0,4.97 1.36,5.11 4.53,6.79 4.48,-3 4.61,-3.8 3.39,-9.05 -3.08,0 -7.92,-0.74 -7.92,2.26z"/>
    <path class="fil0" d="M130.44 49.74l0 3.39c4.19,2.22 3.13,2.25 7.92,1.13 0,-5.91 0.98,-7.92 -4.52,-7.92 -2.61,0 -3.4,0.79 -3.4,3.4z"/>
    <path class="fil0" d="M347.62 15.76c4.8,7.1 9.11,6.36 9.11,-3.36l-6.78 -1.13 -2.33 4.49z"/>
    <path class="fil0" d="M629.42 167.41l0 3.39c2.33,1.24 2.68,1.57 5.66,2.26 7.47,-11.16 -5.66,-11.21 -5.66,-5.65z"/>
    <path class="fil0" d="M1170.26 148.17c0,6.67 9.05,4.78 9.05,1.13 0,-5.18 -9.05,-6.76 -9.05,-1.13z"/>
    <path class="fil0" d="M559.27 73.5c20.01,4.79 0,-18.35 0,0z"/>
    <path class="fil0" d="M270.74 145.91l4.5 5.72c3.31,-2.26 3.52,-2.4 4.56,-6.85 -3.58,-2.4 -9.06,-4.43 -9.06,1.13z"/>
   </g>
  </g>
 </g>
</svg>
