<?xml version="1.0" encoding="UTF-8"?>
<!DOCTYPE svg PUBLIC "-//W3C//DTD SVG 1.1//EN" "http://www.w3.org/Graphics/SVG/1.1/DTD/svg11.dtd">
<svg xmlns="http://www.w3.org/2000/svg" xml:space="preserve" width="1122px" height="520px" version="1.1" style="shape-rendering:geometricPrecision; text-rendering:geometricPrecision; image-rendering:optimizeQuality; fill-rule:evenodd; clip-rule:evenodd"
viewBox="0 0 1122 519.66"
 xmlns:xlink="http://www.w3.org/1999/xlink">
 <defs>
  <style type="text/css">
   <![CDATA[
    .fil0 {fill:#FF0054}
   ]]>
  </style>
 </defs>
 <g id="Layer_x0020_1">
  <metadata id="CorelCorpID_0Corel-Layer"/>
  <path class="fil0" d="M854.26 114.85c0,52.48 -2.68,243.93 2.31,284.37 5.2,42.13 -22.9,34.92 94.26,34.92 26.18,0 46.23,-4.01 61.75,-15.69 14.76,-11.11 25.16,-31.17 25.16,-55.99 0,-77.46 -47.33,-87.97 -119.1,-87.97 -13.48,0 -19.96,18.03 -1.66,24.37 39.07,13.55 95.01,-24.85 95.01,66.86 0,29.69 -14.77,42.53 -44.9,42.52 -31.6,-0.01 -53.49,3.09 -87.08,3.09l0 -303c44.81,0 128.47,-12.16 113,58.91 -3.62,16.63 -6.85,20.28 6.1,29.06 9.7,-2.62 7.8,-1.28 13.13,-9.52 8.62,-13.36 30.51,-104.51 -93.6,-104.51 -59.08,0 -64.38,-7.89 -64.38,32.58z"/>
  <path class="fil0" d="M796.31 52.94l0 413.78c0,33.82 25.76,42.31 25.76,-13.03l0 -404c54.68,0 154.99,-3.13 190.69,18.76 17.32,10.62 30.75,24.98 36.54,47.73 3.53,13.84 4.54,21.9 4.36,37.94 -0.23,21.66 -1.99,22.63 19.49,22.63 10.9,-47.34 0.08,-98.47 -41.13,-124.54 -54.54,-34.5 -150.61,-25.33 -222.83,-25.33 -11.3,0 -12.88,14.46 -12.88,26.06z"/>
  <path class="fil0" d="M341.31 489.53c7.57,1.78 9.5,3.03 19.31,3.25 3.99,-17.32 13.07,-36.11 18.94,-52.5 6.36,-17.79 13.2,-35.05 19.31,-52.13l116.26 -318.92c11.85,13.8 25.18,66.99 31.32,85.6l28.63 88.31c4.95,15.04 11.91,50.9 26.97,50.9 27.54,0 -13.83,-86.08 -28.95,-136.86l-41.87 -127.04 -25.75 0 -156.82 427.74c-4.99,12.42 -7.35,14.94 -7.35,31.65z"/>
  <path class="fil0" d="M30.96 46.43c0,59.73 -4.82,349.53 3.22,384.45l164.18 0.01c23.34,0.13 36.89,5.7 41.84,-13.04 -9.69,-14.64 -18.35,-9.91 -41.84,-9.79l-103.02 0.02c-54.73,0.18 -41.85,25.82 -41.85,-166.17 0,-22.58 0.72,-37.88 2.76,-55.86l-2.75 -120.08c0.02,-7.39 0.98,-23.37 0.32,-29.65 -0.96,-9.13 -2.12,-11.95 -5.97,-12.7l-13.67 0c-0.84,10.19 -3.22,11.58 -3.22,22.81z"/>
  <path class="fil0" d="M908.98 219.11c-1.71,7.42 -2.5,7.49 -3.22,16.29 35.32,17.15 120.05,-13.31 151.79,58.14 23.82,53.61 15.68,140.28 -48.15,167.31 -13.89,5.88 -15.61,5.01 -35.97,5.94l-80.57 3.16c-22.36,-0.21 -35.38,-5.24 -35.38,13.06 0,7.51 2.24,9.77 9.65,9.77 62.76,0 115.24,8 160.46,-13.53 38.57,-18.37 64.87,-66.07 64.87,-113.53 0,-32.16 0.77,-48.75 -11.87,-79.21 -8.29,-19.99 -16.42,-26.98 -30.72,-40.58 -31.53,-29.99 -117.42,-36.04 -140.89,-26.82z"/>
  <path class="fil0" d="M502.26 323.36c0.72,8.8 1.51,8.87 3.22,16.29 26.77,0 44.62,3.28 74.03,3.26 26.83,-0.01 53.65,0 80.48,0 3.09,13.44 49.78,141.82 55.2,146.65 2.18,1.94 -6.24,4.45 8.78,3.14 5.3,-0.46 10.06,-1.07 10.06,-6.43 0,-12.63 -36.19,-107.87 -44.58,-130.82 -4.05,-11.07 -10.57,-38.6 -23.02,-38.6l-151.3 0c-5.22,0 -10.24,3.91 -12.87,6.51z"/>
  <path class="fil0" d="M415.34 450.43c0,8.1 11.24,6.52 19.32,6.52 5.48,-23.82 15.72,-46.05 23.74,-70.45l46.71 -141.7c20.66,-62.74 32.16,-71.52 13.24,-84.34 -15.66,4.23 -13.69,14.75 -18.91,29.73 -4.33,12.41 -8.87,23.61 -12.87,35.84l-36.73 109.44c-4.8,12.86 -8.13,23.46 -12.37,36.35 -5.54,16.82 -22.13,59.49 -22.13,78.61z"/>
  <path class="fil0" d="M88.9 248.43c0,28.64 1.1,51.17 3.05,75.11 4,48.91 -11.29,59.21 19.49,51.95 7.74,-33.66 3.21,-224.36 3.21,-273.67 0,-10.01 -2.98,-19.55 -12.87,-19.55 -18.66,0 -6,40.5 -10.13,77.71 -2.99,26.97 -2.75,56.78 -2.75,88.45z"/>
  <path class="fil0" d="M653.55 294.04c14.41,-12.18 8.69,-14.09 -4.47,-54.12l-48.16 -150c-4.55,-14.26 -4.56,-20.26 -18.19,-23.94 -13.11,11.08 -10.29,10.47 3.23,55.37 6.16,20.45 12.92,40.84 19.74,61.48l28.91 88.02c4.24,11.83 6.04,19.7 18.94,23.19z"/>
  <path class="fil0" d="M486.16 385.27c0,17.69 8.97,13.1 28.99,13.01 17.59,-0.08 18.81,2.89 35.29,3.38 25.18,0.77 51.99,-0.1 77.36,-0.1 4.91,59.75 55.47,87.89 24.85,4.17 -6.04,-16.51 -4.85,-30.24 -24.85,-30.24l-131.98 0c-7.42,0 -9.66,2.27 -9.66,9.78z"/>
  <path class="fil0" d="M92.12 476.49c0,11.44 14.29,13.04 25.75,13.04l125.54 0c43.92,0 43.92,-26.07 0,-26.07l-138.41 0c-7.54,0 -12.88,5.41 -12.88,13.03z"/>
  <path class="fil0" d="M402.47 479.75l0 9.78c6.63,3.55 7.63,4.52 16.09,6.51 21.28,-32.16 -16.09,-32.29 -16.09,-16.29z"/>
  <path class="fil0" d="M1040.96 209.33c56.92,13.79 0,-52.82 0,0z"/>
  <path class="fil0" d="M253.07 417.85l12.78 16.47c9.43,-6.51 10.02,-6.92 12.97,-19.73 -10.18,-6.9 -25.75,-12.75 -25.75,3.26z"/>
 </g>
</svg>
